<svg id="レイヤー_1" data-name="レイヤー 1" xmlns="http://www.w3.org/2000/svg" viewBox="0 0 60 60"><defs><style>.cls-1{fill-rule:evenodd;}</style></defs><title>sns-twitter</title><path class="cls-1" d="M30,0A30,30,0,1,0,60,30,30,30,0,0,0,30,0ZM45.68,24.5c0,.32,0,.64,0,1,0,9.78-7.46,21-21.1,21a21,21,0,0,1-11.37-3.32,15,15,0,0,0,11-3.07A7.41,7.41,0,0,1,17.29,35a7.34,7.34,0,0,0,1.39.13,7.25,7.25,0,0,0,2-.26,7.4,7.4,0,0,1-6-7.25v-.09a7.43,7.43,0,0,0,3.36.92,7.4,7.4,0,0,1-2.3-9.88A21.06,21.06,0,0,0,31,26.28a7.42,7.42,0,0,1,12.63-6.75,14.83,14.83,0,0,0,4.71-1.79,7.41,7.41,0,0,1-3.26,4.09,14.88,14.88,0,0,0,4.26-1.17A15,15,0,0,1,45.68,24.5Z"/></svg>